<?xml version="1.0" encoding="UTF-8" standalone="no"?><!DOCTYPE svg PUBLIC "-//W3C//DTD SVG 1.1//EN" "http://www.w3.org/Graphics/SVG/1.1/DTD/svg11.dtd"><svg width="100%" height="100%" viewBox="0 0 24 24" version="1.1" xmlns="http://www.w3.org/2000/svg" xmlns:xlink="http://www.w3.org/1999/xlink" xml:space="preserve" xmlns:serif="http://www.serif.com/" style="fill-rule:evenodd;clip-rule:evenodd;stroke-linejoin:round;stroke-miterlimit:2;"><path d="M3.4,21.6l0,-4.1l14.4,-14.387c0.217,-0.217 0.458,-0.39 0.725,-0.519c0.267,-0.129 0.533,-0.194 0.8,-0.194c0.275,0 0.546,0.065 0.813,0.194c0.266,0.129 0.52,0.302 0.762,0.519l1.05,1c0.217,0.225 0.379,0.466 0.487,0.725c0.109,0.258 0.163,0.52 0.163,0.787c-0,0.267 -0.052,0.533 -0.156,0.8c-0.104,0.267 -0.273,0.517 -0.507,0.75l-14.412,14.425l-4.125,0Zm17.802,-15.741l-2.066,-2.066l-2.748,2.747l2.066,2.066l2.748,-2.747Zm-7.489,15.741c-0.309,0 -0.571,-0.112 -0.788,-0.338c-0.217,-0.224 -0.325,-0.491 -0.325,-0.8c0,-0.308 0.108,-0.57 0.325,-0.787c0.217,-0.217 0.479,-0.325 0.788,-0.325c0.75,0 1.418,-0.142 2.006,-0.425c0.587,-0.283 0.881,-0.604 0.881,-0.963c0,-0.224 -0.113,-0.439 -0.337,-0.643c-0.226,-0.204 -0.617,-0.402 -1.175,-0.594l1.649,-1.675c0.75,0.367 1.29,0.788 1.619,1.263c0.329,0.475 0.494,1.024 0.494,1.649c0,1.151 -0.54,2.044 -1.619,2.682c-1.079,0.637 -2.252,0.956 -3.518,0.956Zm-8.825,-8.262c-0.884,-0.317 -1.519,-0.698 -1.907,-1.144c-0.387,-0.446 -0.581,-0.998 -0.581,-1.656c0,-0.717 0.252,-1.34 0.756,-1.869c0.504,-0.529 1.465,-1.061 2.882,-1.594c1.008,-0.367 1.654,-0.65 1.937,-0.85c0.283,-0.2 0.425,-0.429 0.425,-0.687c0,-0.234 -0.152,-0.44 -0.456,-0.619c-0.304,-0.179 -0.773,-0.269 -1.406,-0.269c-0.392,0 -0.732,0.05 -1.019,0.15c-0.288,0.1 -0.531,0.254 -0.731,0.463c-0.225,0.225 -0.484,0.345 -0.775,0.362c-0.292,0.017 -0.555,-0.062 -0.788,-0.237c-0.258,-0.209 -0.396,-0.459 -0.412,-0.75c-0.017,-0.292 0.066,-0.563 0.25,-0.813c0.316,-0.417 0.787,-0.758 1.412,-1.025c0.625,-0.267 1.313,-0.4 2.063,-0.4c1.25,0 2.247,0.281 2.993,0.844c0.746,0.562 1.119,1.327 1.119,2.294c0,0.783 -0.248,1.441 -0.744,1.975c-0.496,0.533 -1.485,1.07 -2.968,1.612c-0.984,0.358 -1.611,0.642 -1.882,0.85c-0.271,0.208 -0.406,0.396 -0.406,0.563c0,0.175 0.163,0.347 0.488,0.518c0.325,0.171 0.845,0.323 1.562,0.457l-1.812,1.825Z" style="fill:#9eeaff;"/></svg>