<?xml version="1.0" encoding="UTF-8" standalone="no"?><!DOCTYPE svg PUBLIC "-//W3C//DTD SVG 1.1//EN" "http://www.w3.org/Graphics/SVG/1.1/DTD/svg11.dtd"><svg width="100%" height="100%" viewBox="0 0 24 24" version="1.1" xmlns="http://www.w3.org/2000/svg" xmlns:xlink="http://www.w3.org/1999/xlink" xml:space="preserve" xmlns:serif="http://www.serif.com/" style="fill-rule:evenodd;clip-rule:evenodd;stroke-linejoin:round;stroke-miterlimit:2;"><path d="M2.175,19.72l0,-15.439c0,-0.578 0.207,-1.074 0.619,-1.487c0.413,-0.412 0.908,-0.619 1.487,-0.619l15.439,0c0.578,0 1.074,0.207 1.487,0.619c0.412,0.413 0.619,0.908 0.619,1.487l-0,15.439c-0,0.578 -0.207,1.074 -0.619,1.487c-0.413,0.412 -0.908,0.619 -1.487,0.619l-15.439,-0c-0.578,-0 -1.074,-0.207 -1.487,-0.619c-0.412,-0.413 -0.619,-0.908 -0.619,-1.487Zm9.825,-14.107c-3.525,-0 -6.387,2.862 -6.387,6.387c-0,3.525 2.862,6.387 6.387,6.387c3.525,-0 6.387,-2.862 6.387,-6.387c-0,-3.525 -2.862,-6.387 -6.387,-6.387Zm-0,2.5c2.145,-0 3.887,1.742 3.887,3.887c-0,2.145 -1.742,3.887 -3.887,3.887c-2.145,-0 -3.887,-1.742 -3.887,-3.887c-0,-2.145 1.742,-3.887 3.887,-3.887Z" style="fill:#fff;"/></svg>